# xmcd CD database file
#
# Track frame offsets:
#	182
#	5292
#	19500
#	30525
#	57137
#	66750
#	77825
#	91250
#	103005
#	120520
#	131487
#	143512
#	149120
#	161575
#	176562
#
# Disc length: 2522 seconds
#
# Revision: 2
# Processed by: cddbd v1.5.2PL0 Copyright (c) Steve Scherf et al.
# Submitted via: CDex 1.51
#
DISCID=bd09d80f
DTITLE=Johnny Winter - Living In The  Blues
DYEAR=1967
DGENRE=Blues
TTITLE0=Don´t Drink Whisky
TTITLE1=Pneumonia Blues
TTITLE2=Suicide Won´t Satisfy
TTITLE3=Going Down Slow
TTITLE4=Ice Cube
TTITLE5=Living In The Blues
TTITLE6=Birds Can´t Row Boats
TTITLE7=Avocado Green
TTITLE8=Kind Hearted Woman
TTITLE9=Gangster Of Love
TTITLE10=Parchman Farm
TTITLE11=Bad News
TTITLE12=Bad News (Alternative Version )
TTITLE13=Hook You
TTITLE14=Leaving Blues
EXTD=YEAR: 1967
EXTT0=
EXTT1=
EXTT2=
EXTT3=
EXTT4=
EXTT5=
EXTT6=
EXTT7=
EXTT8=
EXTT9=
EXTT10=
EXTT11=
EXTT12=
EXTT13=
EXTT14=
PLAYORDER=
